<?xml version="1.0" standalone="no"?>
<!DOCTYPE svg PUBLIC "-//W3C//DTD SVG 20010904//EN"
 "http://www.w3.org/TR/2001/REC-SVG-20010904/DTD/svg10.dtd">
<svg version="1.0" xmlns="http://www.w3.org/2000/svg"
 width="512.000000pt" height="512.000000pt" viewBox="0 0 512.000000 512.000000"
 preserveAspectRatio="xMidYMid meet">
<metadata>
Created by potrace 1.11, written by Peter Selinger 2001-2013
</metadata>
<g transform="translate(0.000000,512.000000) scale(0.100000,-0.100000)"
fill="#000000" stroke="none">
<path d="M1698 4088 c-78 -105 -107 -145 -146 -202 -47 -69 -122 -196 -122
-206 0 -5 -4 -10 -8 -12 -10 -3 -114 -208 -106 -208 2 0 -2 -12 -10 -28 -8
-15 -17 -43 -21 -62 -11 -56 -8 -171 5 -187 2 -2 3 -6 4 -10 28 -122 165 -240
321 -279 11 -3 31 -8 45 -11 27 -7 157 -7 206 0 16 2 39 9 50 15 10 5 22 10
27 11 4 1 8 1 10 2 1 0 9 2 18 4 28 5 108 56 150 94 45 43 88 108 108 166 15
41 22 152 12 170 -3 6 -7 21 -9 35 -2 13 -8 30 -14 37 -6 7 -7 13 -3 13 4 0 2
7 -5 15 -7 8 -10 15 -7 15 6 0 -82 177 -122 248 -39 68 -173 266 -183 270 -4
2 -8 9 -8 15 0 7 -10 23 -23 37 -13 14 -27 32 -33 41 -16 28 -67 89 -75 89 -4
0 -31 -33 -61 -72z"/>
<path d="M3268 3408 c-78 -105 -205 -294 -222 -328 -4 -8 -12 -24 -19 -35 -15
-23 -70 -128 -72 -135 -1 -3 -12 -27 -24 -55 -13 -27 -24 -54 -25 -60 -2 -5
-6 -17 -9 -25 -42 -105 -25 -233 45 -335 55 -81 171 -161 261 -179 12 -3 33
-8 47 -12 33 -8 182 -12 195 -5 6 3 17 6 25 7 97 6 253 104 318 199 48 72 70
197 49 280 -9 34 -44 131 -56 153 -6 12 -15 30 -20 40 -35 71 -67 129 -78 140
-7 7 -13 18 -13 23 0 9 -57 98 -80 126 -5 7 -10 15 -10 18 0 17 -208 295 -221
295 -4 0 -45 -51 -91 -112z"/>
<path d="M2173 2163 c-32 -43 -66 -89 -75 -103 -10 -14 -39 -56 -65 -95 -61
-88 -167 -266 -193 -323 -5 -12 -19 -43 -31 -69 -12 -26 -22 -52 -24 -58 -1
-5 -5 -17 -8 -25 -26 -63 -26 -186 2 -253 6 -16 11 -31 11 -33 0 -21 109 -144
127 -144 7 0 13 -4 13 -8 0 -8 69 -45 135 -73 71 -30 289 -29 346 2 9 4 19 5
23 2 3 -3 6 -2 6 4 0 5 6 10 13 10 22 0 106 53 151 97 35 33 107 131 97 131
-1 0 3 14 9 30 15 39 21 157 9 171 -5 7 -9 16 -8 20 1 5 0 12 -1 17 -1 4 -4
12 -5 17 -1 6 -3 11 -4 13 -2 1 -4 11 -6 23 -4 19 -92 197 -134 272 -39 68
-173 266 -183 270 -4 2 -8 8 -8 14 0 6 -17 32 -37 58 -21 27 -49 62 -62 79
-13 17 -27 31 -31 31 -4 0 -34 -35 -67 -77z"/>
</g>
</svg>
